# xmcd
#
# Track frame offsets:
#	150
#	12493
#	23510
#	34755
#	46450
#	58499
#	70578
#	81641
#	93069
#	103577
#	118108
#	128839
#	140524
#	150964
#	164523
#	177746
#	189314
#	203417
#	215924
#	227995
#	239666
#	252848
#	264573
#	274499
#	289036
#	302474
#	314361
#	327452
#
# Disc length: 4539 seconds
#
# Revision: 1
# Processed by: cddbd v1.5.2PL0 Copyright (c) Steve Scherf et al.
# Submitted via: audiograbber 1.83.01
#
DISCID=a111b91c
DTITLE=Various Artist - The Louisiana Hayride Story - Shuffle On Down(CD2 of 4)
DYEAR=2006
DGENRE=Country
TTITLE0=Tex Grimsley - Shuffle On Down
TTITLE1=Tex Grimsley - Walking The Dog
TTITLE2=Red Sovine - You're Barking Up The Wrong Tree Now
TTITLE3=Paul Howard - The Boogie's Fine Tonight
TTITLE4=Floyd Tillman - I Almost Lost My Mind
TTITLE5=Riley Crabtree - Shackles And Chains
TTITLE6=Billy Wallace - Dog Hauled Around
TTITLE7=Oakie Jones - Hillbilly Bessie
TTITLE8=Johnnie&Jack - Poison Love
TTITLE9=Teddy Wilburn - Court Of Justice
TTITLE10=Mercer Bros - Just You Wait And See
TTITLE11=Mercer Bros - If Nickles Were Dimes
TTITLE12=Lefty Frizzell - Give Me More More More (Of Your Kisses)
TTITLE13=Webb Pierce - Wondering
TTITLE14=Slim Whitman - Love Song Of The Waterfall
TTITLE15=Buddy Attaway - I'm Sitting On Top Of The World
TTITLE16=Buddy Attaway - Freight Train Blues
TTITLE17=Clyde Moody - Tend To Your Business
TTITLE18=Mac Wiseman - I'll Still Write Your Name In The Sand
TTITLE19=Mac Wiseman - Four Wall Around Me
TTITLE20=Tillman Franks-Hi - Tone Poppa
TTITLE21=Hank Williams - Settin' The Woods On Fire
TTITLE22=Maddox Bros and Rose - South
TTITLE23=Maddox Bros and Rose - Rock All Our Babies To Sleep
TTITLE24=Mercer Bros - No Place To Hang My Hat
TTITLE25=Mercer Bros - It Ain't No Use
TTITLE26=Billy Walker - Anything Your Heart Desires
TTITLE27=Hank Williams - Jambalaya (On The Bayou)
EXTD=YEAR: 2006 ID3G: 2
EXTT0=
EXTT1=
EXTT2=
EXTT3=
EXTT4=
EXTT5=
EXTT6=
EXTT7=
EXTT8=
EXTT9=
EXTT10=
EXTT11=
EXTT12=
EXTT13=
EXTT14=
EXTT15=
EXTT16=
EXTT17=
EXTT18=
EXTT19=
EXTT20=
EXTT21=
EXTT22=
EXTT23=
EXTT24=
EXTT25=
EXTT26=
EXTT27=
PLAYORDER=
